<?xml version="1.0" encoding="UTF-8" standalone="no"?>
<svg width="1000" height="200" viewBox="0 0 1000 200" xmlns="http://www.w3.org/2000/svg">
  <!-- Horizontal Mirror + Scale Up -->
  <g transform="translate(1000, 0) scale(-1, 1) translate(50, -10) scale(0.9)">
    <!-- A -->
    <path fill="currentColor" d="M 50 20 L 10 180 L 40 180 L 50 140 L 90 140 L 100 180 L 130 180 L 90 20 L 50 20 Z M 57 110 L 70 55 L 83 110 L 57 110 Z" />
    <!-- E -->
    <path fill="currentColor" d="M 160 20 L 160 180 L 270 180 L 270 150 L 195 150 L 195 115 L 260 115 L 260 85 L 195 85 L 195 50 L 270 50 L 270 20 L 160 20 Z" />
    <!-- R -->
    <path fill="currentColor" d="M 300 20 L 300 180 L 335 180 L 335 115 L 375 115 L 410 180 L 445 180 L 405 110 C 425 105 440 90 440 65 C 440 40 425 20 395 20 L 300 20 Z M 335 50 L 390 50 C 400 50 405 55 405 65 C 405 75 400 80 390 80 L 335 80 L 335 50 Z" />
    <!-- O -->
    <path fill="currentColor" d="M 535 20 C 490 20 470 55 470 100 C 470 145 490 180 535 180 C 580 180 600 145 600 100 C 600 55 580 20 535 20 Z M 535 50 C 560 50 565 75 565 100 C 565 125 560 150 535 150 C 510 150 505 125 505 100 C 505 75 510 50 535 50 Z" />
    <!-- . (DOT) -->
    <path fill="currentColor" d="M 630 150 L 630 180 L 660 180 L 660 150 L 630 150 Z" />
    <!-- A -->
    <path fill="currentColor" d="M 730 20 L 690 180 L 720 180 L 730 140 L 770 140 L 780 180 L 810 180 L 770 20 L 730 20 Z M 737 110 L 750 55 L 763 110 L 737 110 Z" />
    <!-- I -->
    <path fill="currentColor" d="M 840 20 L 840 50 L 880 50 L 880 150 L 840 150 L 840 180 L 950 180 L 950 150 L 910 150 L 910 50 L 950 50 L 950 20 L 840 20 Z" />
  </g>
</svg>
