<svg width="390" height="450" viewBox="0 0 390 450" fill="none" xmlns="http://www.w3.org/2000/svg">
<path d="M207.543 315.536H177.248V255.144H146.954V194.567H177.248V133.99H207.543V194.567H237.838V255.144H207.543V315.536ZM146.954 194.567H116.844V164.279H146.954V194.567ZM268.132 194.567H237.838V164.279H268.132V194.567ZM146.954 285.248H116.844V255.144H146.954V285.248ZM268.132 285.248H237.838V255.144H268.132V285.248Z" fill="#242424"/>
<path fill-rule="evenodd" clip-rule="evenodd" d="M194.654 20.7631L17.9814 122.765V326.77L194.654 428.772L371.327 326.77V122.765L194.654 20.7631ZM389.309 112.384L194.654 0L0 112.384V337.151L194.654 449.535L389.309 337.151V112.384Z" fill="#242424"/>
</svg>
