<svg width="761" height="771" viewBox="0 0 761 771" fill="none" xmlns="http://www.w3.org/2000/svg">
<path d="M207.543 315.536H177.248V255.144H146.954V194.567H177.248V133.99H207.543V194.567H237.838V255.144H207.543V315.536ZM146.954 194.567H116.844V164.279H146.954V194.567ZM268.132 194.567H237.838V164.279H268.132V194.567ZM146.954 285.248H116.844V255.144H146.954V285.248ZM268.132 285.248H237.838V255.144H268.132V285.248Z" fill="#242424"/>
<path fill-rule="evenodd" clip-rule="evenodd" d="M194.654 20.7631L17.9814 122.765V326.77L194.654 428.772L371.327 326.77V122.765L194.654 20.7631ZM389.309 112.384L194.654 0L0 112.384V337.151L194.654 449.535L389.309 337.151V112.384Z" fill="#242424"/>
<path d="M578.543 315.536H548.248V255.144H517.954V194.567H548.248V133.99H578.543V194.567H608.838V255.144H578.543V315.536ZM517.954 194.567H487.844V164.279H517.954V194.567ZM639.132 194.567H608.838V164.279H639.132V194.567ZM517.954 285.248H487.844V255.144H517.954V285.248ZM639.132 285.248H608.838V255.144H639.132V285.248Z" fill="#242424"/>
<path fill-rule="evenodd" clip-rule="evenodd" d="M565.654 20.7631L388.981 122.765V326.77L565.654 428.772L742.327 326.77V122.765L565.654 20.7631ZM760.309 112.384L565.654 0L371 112.384V337.151L565.654 449.535L760.309 337.151V112.384Z" fill="#242424"/>
<path d="M393.543 636.536H363.248V576.144H332.954V515.567H363.248V454.99H393.543V515.567H423.838V576.144H393.543V636.536ZM332.954 515.567H302.844V485.279H332.954V515.567ZM454.132 515.567H423.838V485.279H454.132V515.567ZM332.954 606.248H302.844V576.144H332.954V606.248ZM454.132 606.248H423.838V576.144H454.132V606.248Z" fill="#242424"/>
<path fill-rule="evenodd" clip-rule="evenodd" d="M380.654 341.763L203.981 443.765V647.77L380.654 749.772L557.327 647.77V443.765L380.654 341.763ZM575.309 433.384L380.654 321L186 433.384V658.151L380.654 770.535L575.309 658.151V433.384Z" fill="#242424"/>
</svg>
