<?xml version="1.0" ?><!-- Uploaded to: SVG Repo, www.svgrepo.com, Generator: SVG Repo Mixer Tools -->
<svg width="800px" height="800px" viewBox="0 0 24 24" data-name="025_SCIENCE" id="_025_SCIENCE" xmlns="http://www.w3.org/2000/svg"><defs><style>.cls-1{fill:#333;}</style></defs><path class="cls-1" d="M8,13H5a3,3,0,0,1-3-3V6A3,3,0,0,1,5,3h8a3,3,0,0,1,3,3V7a1,1,0,0,1-2,0V6a1,1,0,0,0-1-1H5A1,1,0,0,0,4,6v4a1,1,0,0,0,1,1H8a1,1,0,0,1,0,2Z"/><path class="cls-1" d="M7,9a1.05,1.05,0,0,1-.71-.29,1,1,0,0,1-.21-.33A1,1,0,0,1,6,8a1.05,1.05,0,0,1,.29-.71,1.15,1.15,0,0,1,.33-.21,1,1,0,0,1,1.09.21,1,1,0,0,1,0,1.42l-.15.12-.18.09L7.2,9Z"/><path class="cls-1" d="M11,9a1.05,1.05,0,0,1-.71-.29l-.12-.15a.76.76,0,0,1-.09-.18A.64.64,0,0,1,10,8.2,1.5,1.5,0,0,1,10,8a1.05,1.05,0,0,1,.29-.71,1,1,0,0,1,.33-.21,1,1,0,0,1,1.09.21A1.05,1.05,0,0,1,12,8a1.5,1.5,0,0,1,0,.2.64.64,0,0,1-.06.18.76.76,0,0,1-.09.18l-.12.15A1.05,1.05,0,0,1,11,9Z"/><path class="cls-1" d="M9,4A1,1,0,0,1,8,3V2a1,1,0,0,1,2,0V3A1,1,0,0,1,9,4Z"/><path class="cls-1" d="M6,22a1,1,0,0,1-1-1V18a1,1,0,0,1,2,0v3A1,1,0,0,1,6,22Z"/><path class="cls-1" d="M8,19H6a1,1,0,0,1-1-1V12a1,1,0,0,1,2,0v5H8a1,1,0,0,1,0,2Z"/><path class="cls-1" d="M2,17a1,1,0,0,1-.89-.55,1,1,0,0,1,.44-1.34l4-2a1,1,0,0,1,.9,1.78l-4,2A.93.93,0,0,1,2,17Z"/><path class="cls-1" d="M16,23a1,1,0,0,1-.5-.13L10.5,20a1,1,0,0,1-.5-.87V13.34a1,1,0,0,1,.5-.87l5-2.88a1,1,0,0,1,1,0l5,2.88a1,1,0,0,1,.5.87v5.77a1,1,0,0,1-.5.87l-5,2.89A1,1,0,0,1,16,23Zm-4-4.46,4,2.31,4-2.31V13.92l-4-2.31-4,2.31Z"/><path class="cls-1" d="M16,14.73a1.5,1.5,0,1,0,1.5,1.5A1.5,1.5,0,0,0,16,14.73Z"/></svg>